<svg t="1676944879202" class="icon" viewBox="0 0 1024 1024" version="1.1" xmlns="http://www.w3.org/2000/svg" p-id="3618" width="750" height="750"><path d="M958.399933 451.548186c-0.058328-5.760191-2.597151-11.215436-6.965645-14.969946L524.347213 69.511143c-7.502881-6.445806-18.581194-6.445806-26.084075 0L310.617433 230.786247 310.617433 130.423445c0-11.04966-8.958022-20.007683-20.007683-20.007683l-88.034009 0c-11.04966 0-20.007683 8.958022-20.007683 20.007683l0 210.416314L71.332628 436.57824c-4.423753 3.801583-6.809079 9.342786-6.809079 15.173584l0 105.059777c0 8.132214 4.640694 15.755846 12.139481 18.903535 2.473331 1.038656 5.024433 1.545192 7.626701 1.545192 4.699022 0 9.307993-1.654686 13.008268-4.836145l53.257971-45.825698 0 344.108199c0 49.724495 40.310078 90.034573 90.034573 90.034573l156.461471 0c-0.26299-1.293459-0.402159-2.63092-0.402159-4.001127L396.649855 680.633698c0-22.099321 17.915022-40.015366 40.015366-40.015366l134.051065 0c22.099321 0 40.015366 17.915022 40.015366 40.015366l0 276.105409c0 1.370207-0.13917 2.708692-0.402159 4.001127l174.46859 0c49.724495 0 90.034573-40.310078 90.034573-90.034573L874.832655 527.025205l51.141774 43.954071c5.133927 4.412496 12.125155 6.309706 18.659989 4.538363 8.974395-2.432399 14.922874-10.536984 14.830777-19.533892L958.399933 451.548186z" fill="" p-id="3619"></path></svg>