<svg t="1682409595823" class="icon" viewBox="0 0 1024 1024" version="1.1" xmlns="http://www.w3.org/2000/svg" p-id="3172" width="750" height="750"><path d="M847 113c35.346 0 64 28.654 64 64v143c0 35.346-28.654 64-64 64H495c-35.346 0-64-28.654-64-64v-47H177v207h670c35.346 0 64 28.654 64 64v192c0 35.346-28.654 64-64 64H593v47c0 35.346-28.654 64-64 64H177c-35.346 0-64-28.654-64-64V704c0-35.346 28.654-64 64-64h352c35.346 0 64 28.654 64 64v32h254V544H177c-35.346 0-64-28.654-64-64V273c0-35.346 28.654-64 64-64h254v-32c0-35.346 28.654-64 64-64h352zM529 704H177v143h352V704z m318-527H495v143h352V177z" p-id="3173"></path></svg>